# xmcd CD database file
#
# Track frame offsets:
#	150
#	15184
#	31392
#	47112
#	59467
#	70552
#	84757
#	102030
#	115360
#	128042
#	141415
#	154600
#
# Disc length: 2252 seconds
#
# Revision: 1
# Processed by: cddbd v1.5.2PL0 Copyright (c) Steve Scherf et al.
# Submitted via: CDex 1.50Beta7
#
DISCID=9008ca0c
DTITLE=Country Com Amor - Country Com Amor
DYEAR=2007
DGENRE=Country
TTITLE0=Yesterday When I Was Young - Roy clark
TTITLE1=Stand By Me - Mickey Gilley
TTITLE2=Always Have, Always Will - Janie Fricke
TTITLE3=Broken Lady - The Gatlin Brothers
TTITLE4=Pass me by - Johnny Rodriguez
TTITLE5=The Tips of my fingers - Roy Clark
TTITLE6=Joe Knows How To Live - Eddy Raven
TTITLE7=Roomful of Roses - Mickey Gilley
TTITLE8=All The Gold In California - The Gatlin Brothers
TTITLE9=You Hearts Not In It - Janie Fricke
TTITLE10=Come Live With Me - Roy Clark
TTITLE11=You Don't Know Me - Mickey Gilley
EXTD=YEAR: 2007
EXTT0=
EXTT1=
EXTT2=
EXTT3=
EXTT4=
EXTT5=
EXTT6=
EXTT7=
EXTT8=
EXTT9=
EXTT10=
EXTT11=
PLAYORDER=
